<mxfile host="app.diagrams.net" agent="Mozilla/5.0 (Macintosh; Intel Mac OS X 10_15_7) AppleWebKit/537.36 (KHTML, like Gecko) Chrome/139.0.0.0 Safari/537.36 Edg/139.0.0.0" version="26.2.10" pages="2">
  <diagram name="Page-1" id="52a04d89-c75d-2922-d76d-85b35f80e030">
    <mxGraphModel dx="834" dy="437" grid="1" gridSize="10" guides="1" tooltips="1" connect="1" arrows="1" fold="1" page="1" pageScale="1" pageWidth="1100" pageHeight="850" background="none" math="0" shadow="0">
      <root>
        <mxCell id="0" />
        <mxCell id="1" parent="0" />
        <mxCell id="oatqSGxFqs4LWMvcX0Bn-17" style="edgeStyle=none;curved=1;rounded=0;orthogonalLoop=1;jettySize=auto;html=1;exitX=1;exitY=0.5;exitDx=0;exitDy=0;entryX=0;entryY=0.5;entryDx=0;entryDy=0;fontSize=12;startSize=8;endSize=8;" edge="1" parent="1" source="oatqSGxFqs4LWMvcX0Bn-6" target="oatqSGxFqs4LWMvcX0Bn-13">
          <mxGeometry relative="1" as="geometry" />
        </mxCell>
        <mxCell id="oatqSGxFqs4LWMvcX0Bn-24" value="是" style="edgeLabel;html=1;align=center;verticalAlign=middle;resizable=0;points=[];fontSize=12;" vertex="1" connectable="0" parent="oatqSGxFqs4LWMvcX0Bn-17">
          <mxGeometry x="-0.1333" y="1" relative="1" as="geometry">
            <mxPoint as="offset" />
          </mxGeometry>
        </mxCell>
        <mxCell id="oatqSGxFqs4LWMvcX0Bn-30" style="edgeStyle=none;curved=1;rounded=0;orthogonalLoop=1;jettySize=auto;html=1;exitX=0.5;exitY=0;exitDx=0;exitDy=0;fontSize=12;startSize=8;endSize=8;" edge="1" parent="1" source="oatqSGxFqs4LWMvcX0Bn-6" target="oatqSGxFqs4LWMvcX0Bn-29">
          <mxGeometry relative="1" as="geometry" />
        </mxCell>
        <mxCell id="oatqSGxFqs4LWMvcX0Bn-32" style="edgeStyle=none;curved=1;rounded=0;orthogonalLoop=1;jettySize=auto;html=1;entryX=0.5;entryY=1;entryDx=0;entryDy=0;fontSize=12;startSize=8;endSize=8;" edge="1" parent="1" source="oatqSGxFqs4LWMvcX0Bn-6" target="oatqSGxFqs4LWMvcX0Bn-10">
          <mxGeometry relative="1" as="geometry">
            <Array as="points">
              <mxPoint x="660" y="510" />
            </Array>
          </mxGeometry>
        </mxCell>
        <mxCell id="oatqSGxFqs4LWMvcX0Bn-33" value="驳回到编辑状态" style="edgeLabel;html=1;align=center;verticalAlign=middle;resizable=0;points=[];fontSize=12;" vertex="1" connectable="0" parent="oatqSGxFqs4LWMvcX0Bn-32">
          <mxGeometry x="-0.4381" y="-48" relative="1" as="geometry">
            <mxPoint as="offset" />
          </mxGeometry>
        </mxCell>
        <mxCell id="oatqSGxFqs4LWMvcX0Bn-6" value="审核人员进行测试&lt;br&gt;判断知识图谱状态" style="rhombus;whiteSpace=wrap;html=1;" vertex="1" parent="1">
          <mxGeometry x="730" y="200" width="130" height="140" as="geometry" />
        </mxCell>
        <mxCell id="oatqSGxFqs4LWMvcX0Bn-18" value="" style="edgeStyle=none;curved=1;rounded=0;orthogonalLoop=1;jettySize=auto;html=1;fontSize=12;startSize=8;endSize=8;" edge="1" parent="1" source="oatqSGxFqs4LWMvcX0Bn-8" target="oatqSGxFqs4LWMvcX0Bn-6">
          <mxGeometry relative="1" as="geometry" />
        </mxCell>
        <mxCell id="oatqSGxFqs4LWMvcX0Bn-8" value="实体转入&lt;div&gt;待审核状态&lt;/div&gt;" style="rounded=0;whiteSpace=wrap;html=1;" vertex="1" parent="1">
          <mxGeometry x="580" y="240" width="120" height="60" as="geometry" />
        </mxCell>
        <mxCell id="oatqSGxFqs4LWMvcX0Bn-21" value="" style="edgeStyle=none;curved=1;rounded=0;orthogonalLoop=1;jettySize=auto;html=1;fontSize=12;startSize=8;endSize=8;" edge="1" parent="1" source="oatqSGxFqs4LWMvcX0Bn-9" target="oatqSGxFqs4LWMvcX0Bn-10">
          <mxGeometry relative="1" as="geometry" />
        </mxCell>
        <mxCell id="oatqSGxFqs4LWMvcX0Bn-9" value="打开某一知识图谱" style="rounded=0;whiteSpace=wrap;html=1;" vertex="1" parent="1">
          <mxGeometry x="294" y="240" width="120" height="60" as="geometry" />
        </mxCell>
        <mxCell id="oatqSGxFqs4LWMvcX0Bn-19" style="edgeStyle=none;curved=1;rounded=0;orthogonalLoop=1;jettySize=auto;html=1;exitX=1;exitY=0.5;exitDx=0;exitDy=0;entryX=0;entryY=0.5;entryDx=0;entryDy=0;fontSize=12;startSize=8;endSize=8;" edge="1" parent="1" source="oatqSGxFqs4LWMvcX0Bn-10" target="oatqSGxFqs4LWMvcX0Bn-8">
          <mxGeometry relative="1" as="geometry" />
        </mxCell>
        <mxCell id="oatqSGxFqs4LWMvcX0Bn-10" value="编辑&lt;br&gt;（对实体关系进行调整）" style="rounded=0;whiteSpace=wrap;html=1;" vertex="1" parent="1">
          <mxGeometry x="434" y="240" width="130" height="60" as="geometry" />
        </mxCell>
        <mxCell id="oatqSGxFqs4LWMvcX0Bn-13" value="完成审核" style="rounded=0;whiteSpace=wrap;html=1;" vertex="1" parent="1">
          <mxGeometry x="934" y="240" width="120" height="60" as="geometry" />
        </mxCell>
        <mxCell id="oatqSGxFqs4LWMvcX0Bn-20" style="edgeStyle=none;curved=1;rounded=0;orthogonalLoop=1;jettySize=auto;html=1;exitX=0.75;exitY=0;exitDx=0;exitDy=0;fontSize=12;startSize=8;endSize=8;" edge="1" parent="1" source="oatqSGxFqs4LWMvcX0Bn-9" target="oatqSGxFqs4LWMvcX0Bn-9">
          <mxGeometry relative="1" as="geometry" />
        </mxCell>
        <mxCell id="oatqSGxFqs4LWMvcX0Bn-29" value="下线禁用图谱" style="rounded=0;whiteSpace=wrap;html=1;" vertex="1" parent="1">
          <mxGeometry x="735" y="100" width="120" height="60" as="geometry" />
        </mxCell>
      </root>
    </mxGraphModel>
  </diagram>
  <diagram id="2IseU6khgCry2CcMhcnU" name="第 2 页">
    <mxGraphModel dx="2127" dy="906" grid="0" gridSize="10" guides="1" tooltips="1" connect="1" arrows="1" fold="1" page="0" pageScale="1" pageWidth="827" pageHeight="1169" math="0" shadow="0">
      <root>
        <mxCell id="0" />
        <mxCell id="1" parent="0" />
        <mxCell id="wEr44A83C3MxZ_CNo4HR-15" style="edgeStyle=none;curved=1;rounded=0;orthogonalLoop=1;jettySize=auto;html=1;exitX=1;exitY=0.5;exitDx=0;exitDy=0;entryX=0;entryY=0.5;entryDx=0;entryDy=0;fontSize=12;startSize=8;endSize=8;" edge="1" parent="1" source="wEr44A83C3MxZ_CNo4HR-1" target="wEr44A83C3MxZ_CNo4HR-2">
          <mxGeometry relative="1" as="geometry" />
        </mxCell>
        <mxCell id="wEr44A83C3MxZ_CNo4HR-17" style="edgeStyle=none;curved=1;rounded=0;orthogonalLoop=1;jettySize=auto;html=1;exitX=1;exitY=0.5;exitDx=0;exitDy=0;entryX=0;entryY=0.5;entryDx=0;entryDy=0;fontSize=12;startSize=8;endSize=8;" edge="1" parent="1" source="wEr44A83C3MxZ_CNo4HR-1" target="wEr44A83C3MxZ_CNo4HR-3">
          <mxGeometry relative="1" as="geometry" />
        </mxCell>
        <mxCell id="wEr44A83C3MxZ_CNo4HR-1" value="基础部/角色1" style="rounded=0;whiteSpace=wrap;html=1;" vertex="1" parent="1">
          <mxGeometry x="85" y="156" width="120" height="60" as="geometry" />
        </mxCell>
        <mxCell id="wEr44A83C3MxZ_CNo4HR-22" style="edgeStyle=none;curved=1;rounded=0;orthogonalLoop=1;jettySize=auto;html=1;exitX=1;exitY=0.5;exitDx=0;exitDy=0;entryX=0;entryY=0.5;entryDx=0;entryDy=0;fontSize=12;startSize=8;endSize=8;" edge="1" parent="1" source="wEr44A83C3MxZ_CNo4HR-2" target="wEr44A83C3MxZ_CNo4HR-21">
          <mxGeometry relative="1" as="geometry" />
        </mxCell>
        <mxCell id="wEr44A83C3MxZ_CNo4HR-23" style="edgeStyle=none;curved=1;rounded=0;orthogonalLoop=1;jettySize=auto;html=1;exitX=1;exitY=0.5;exitDx=0;exitDy=0;entryX=0;entryY=0.5;entryDx=0;entryDy=0;fontSize=12;startSize=8;endSize=8;" edge="1" parent="1" source="wEr44A83C3MxZ_CNo4HR-2" target="wEr44A83C3MxZ_CNo4HR-20">
          <mxGeometry relative="1" as="geometry" />
        </mxCell>
        <mxCell id="wEr44A83C3MxZ_CNo4HR-2" value="SJ/GL 分组" style="rounded=0;whiteSpace=wrap;html=1;" vertex="1" parent="1">
          <mxGeometry x="304" y="102" width="120" height="60" as="geometry" />
        </mxCell>
        <mxCell id="wEr44A83C3MxZ_CNo4HR-26" style="edgeStyle=none;curved=1;rounded=0;orthogonalLoop=1;jettySize=auto;html=1;exitX=1;exitY=0.5;exitDx=0;exitDy=0;entryX=0;entryY=0.5;entryDx=0;entryDy=0;fontSize=12;startSize=8;endSize=8;" edge="1" parent="1" source="wEr44A83C3MxZ_CNo4HR-3" target="wEr44A83C3MxZ_CNo4HR-24">
          <mxGeometry relative="1" as="geometry" />
        </mxCell>
        <mxCell id="wEr44A83C3MxZ_CNo4HR-3" value="SJ/FR 分组" style="rounded=0;whiteSpace=wrap;html=1;" vertex="1" parent="1">
          <mxGeometry x="304" y="186" width="120" height="60" as="geometry" />
        </mxCell>
        <mxCell id="wEr44A83C3MxZ_CNo4HR-27" style="edgeStyle=none;curved=1;rounded=0;orthogonalLoop=1;jettySize=auto;html=1;exitX=1;exitY=0.5;exitDx=0;exitDy=0;entryX=0;entryY=0.5;entryDx=0;entryDy=0;fontSize=12;startSize=8;endSize=8;" edge="1" parent="1" source="wEr44A83C3MxZ_CNo4HR-4" target="wEr44A83C3MxZ_CNo4HR-25">
          <mxGeometry relative="1" as="geometry" />
        </mxCell>
        <mxCell id="wEr44A83C3MxZ_CNo4HR-4" value="SJ/H 分组" style="rounded=0;whiteSpace=wrap;html=1;" vertex="1" parent="1">
          <mxGeometry x="304" y="270" width="120" height="60" as="geometry" />
        </mxCell>
        <mxCell id="wEr44A83C3MxZ_CNo4HR-16" style="edgeStyle=none;curved=1;rounded=0;orthogonalLoop=1;jettySize=auto;html=1;exitX=1;exitY=0.5;exitDx=0;exitDy=0;entryX=0;entryY=0.75;entryDx=0;entryDy=0;fontSize=12;startSize=8;endSize=8;" edge="1" parent="1" source="wEr44A83C3MxZ_CNo4HR-5" target="wEr44A83C3MxZ_CNo4HR-2">
          <mxGeometry relative="1" as="geometry" />
        </mxCell>
        <mxCell id="wEr44A83C3MxZ_CNo4HR-19" style="edgeStyle=none;curved=1;rounded=0;orthogonalLoop=1;jettySize=auto;html=1;exitX=1;exitY=0.5;exitDx=0;exitDy=0;entryX=0;entryY=0.5;entryDx=0;entryDy=0;fontSize=12;startSize=8;endSize=8;" edge="1" parent="1" source="wEr44A83C3MxZ_CNo4HR-5" target="wEr44A83C3MxZ_CNo4HR-4">
          <mxGeometry relative="1" as="geometry" />
        </mxCell>
        <mxCell id="wEr44A83C3MxZ_CNo4HR-5" value="基础部/角色2" style="rounded=0;whiteSpace=wrap;html=1;" vertex="1" parent="1">
          <mxGeometry x="88" y="257" width="120" height="60" as="geometry" />
        </mxCell>
        <mxCell id="wEr44A83C3MxZ_CNo4HR-12" style="edgeStyle=none;curved=1;rounded=0;orthogonalLoop=1;jettySize=auto;html=1;exitX=1;exitY=0.5;exitDx=0;exitDy=0;entryX=0;entryY=0.5;entryDx=0;entryDy=0;fontSize=12;startSize=8;endSize=8;" edge="1" parent="1" source="wEr44A83C3MxZ_CNo4HR-6" target="wEr44A83C3MxZ_CNo4HR-1">
          <mxGeometry relative="1" as="geometry" />
        </mxCell>
        <mxCell id="wEr44A83C3MxZ_CNo4HR-6" value="成员1" style="rounded=0;whiteSpace=wrap;html=1;" vertex="1" parent="1">
          <mxGeometry x="-97" y="162" width="120" height="60" as="geometry" />
        </mxCell>
        <mxCell id="wEr44A83C3MxZ_CNo4HR-13" style="edgeStyle=none;curved=1;rounded=0;orthogonalLoop=1;jettySize=auto;html=1;exitX=1;exitY=0.5;exitDx=0;exitDy=0;entryX=0;entryY=0.75;entryDx=0;entryDy=0;fontSize=12;startSize=8;endSize=8;" edge="1" parent="1" source="wEr44A83C3MxZ_CNo4HR-7" target="wEr44A83C3MxZ_CNo4HR-1">
          <mxGeometry relative="1" as="geometry" />
        </mxCell>
        <mxCell id="wEr44A83C3MxZ_CNo4HR-14" style="edgeStyle=none;curved=1;rounded=0;orthogonalLoop=1;jettySize=auto;html=1;exitX=1;exitY=0.5;exitDx=0;exitDy=0;entryX=0;entryY=0.5;entryDx=0;entryDy=0;fontSize=12;startSize=8;endSize=8;" edge="1" parent="1" source="wEr44A83C3MxZ_CNo4HR-7" target="wEr44A83C3MxZ_CNo4HR-5">
          <mxGeometry relative="1" as="geometry" />
        </mxCell>
        <mxCell id="wEr44A83C3MxZ_CNo4HR-30" style="edgeStyle=none;curved=1;rounded=0;orthogonalLoop=1;jettySize=auto;html=1;exitX=1;exitY=0.5;exitDx=0;exitDy=0;entryX=0;entryY=0.5;entryDx=0;entryDy=0;fontSize=12;startSize=8;endSize=8;" edge="1" parent="1" source="wEr44A83C3MxZ_CNo4HR-7" target="wEr44A83C3MxZ_CNo4HR-29">
          <mxGeometry relative="1" as="geometry" />
        </mxCell>
        <mxCell id="wEr44A83C3MxZ_CNo4HR-7" value="成员2" style="rounded=0;whiteSpace=wrap;html=1;" vertex="1" parent="1">
          <mxGeometry x="-97" y="265" width="120" height="60" as="geometry" />
        </mxCell>
        <mxCell id="wEr44A83C3MxZ_CNo4HR-20" value="文件2&amp;nbsp;" style="rounded=0;whiteSpace=wrap;html=1;" vertex="1" parent="1">
          <mxGeometry x="466" y="93" width="120" height="60" as="geometry" />
        </mxCell>
        <mxCell id="wEr44A83C3MxZ_CNo4HR-21" value="文件1" style="rounded=0;whiteSpace=wrap;html=1;" vertex="1" parent="1">
          <mxGeometry x="466" y="11" width="120" height="60" as="geometry" />
        </mxCell>
        <mxCell id="wEr44A83C3MxZ_CNo4HR-24" value="文件x" style="rounded=0;whiteSpace=wrap;html=1;" vertex="1" parent="1">
          <mxGeometry x="466" y="175" width="120" height="60" as="geometry" />
        </mxCell>
        <mxCell id="wEr44A83C3MxZ_CNo4HR-25" value="文件y" style="rounded=0;whiteSpace=wrap;html=1;" vertex="1" parent="1">
          <mxGeometry x="473" y="309" width="120" height="60" as="geometry" />
        </mxCell>
        <mxCell id="wEr44A83C3MxZ_CNo4HR-28" value="" style="endArrow=none;dashed=1;html=1;dashPattern=1 3;strokeWidth=2;rounded=0;fontSize=12;startSize=8;endSize=8;curved=1;" edge="1" parent="1">
          <mxGeometry width="50" height="50" relative="1" as="geometry">
            <mxPoint x="492" y="276" as="sourcePoint" />
            <mxPoint x="560" y="276" as="targetPoint" />
          </mxGeometry>
        </mxCell>
        <mxCell id="wEr44A83C3MxZ_CNo4HR-31" style="edgeStyle=none;curved=1;rounded=0;orthogonalLoop=1;jettySize=auto;html=1;exitX=1;exitY=0.5;exitDx=0;exitDy=0;entryX=0;entryY=0.75;entryDx=0;entryDy=0;fontSize=12;startSize=8;endSize=8;" edge="1" parent="1" source="wEr44A83C3MxZ_CNo4HR-29" target="wEr44A83C3MxZ_CNo4HR-4">
          <mxGeometry relative="1" as="geometry" />
        </mxCell>
        <mxCell id="wEr44A83C3MxZ_CNo4HR-32" style="edgeStyle=none;curved=1;rounded=0;orthogonalLoop=1;jettySize=auto;html=1;exitX=1;exitY=0.5;exitDx=0;exitDy=0;entryX=0;entryY=1;entryDx=0;entryDy=0;fontSize=12;startSize=8;endSize=8;" edge="1" parent="1" source="wEr44A83C3MxZ_CNo4HR-29" target="wEr44A83C3MxZ_CNo4HR-2">
          <mxGeometry relative="1" as="geometry" />
        </mxCell>
        <mxCell id="wEr44A83C3MxZ_CNo4HR-29" value="数字部/角色1" style="rounded=0;whiteSpace=wrap;html=1;" vertex="1" parent="1">
          <mxGeometry x="88" y="354" width="120" height="60" as="geometry" />
        </mxCell>
        <mxCell id="wEr44A83C3MxZ_CNo4HR-37" style="edgeStyle=none;curved=1;rounded=0;orthogonalLoop=1;jettySize=auto;html=1;exitX=1;exitY=0.5;exitDx=0;exitDy=0;fontSize=12;startSize=8;endSize=8;" edge="1" parent="1" source="wEr44A83C3MxZ_CNo4HR-35" target="wEr44A83C3MxZ_CNo4HR-36">
          <mxGeometry relative="1" as="geometry" />
        </mxCell>
        <mxCell id="wEr44A83C3MxZ_CNo4HR-39" style="edgeStyle=none;curved=1;rounded=0;orthogonalLoop=1;jettySize=auto;html=1;exitX=1;exitY=0.5;exitDx=0;exitDy=0;entryX=0;entryY=0.5;entryDx=0;entryDy=0;fontSize=12;startSize=8;endSize=8;" edge="1" parent="1" source="wEr44A83C3MxZ_CNo4HR-35" target="wEr44A83C3MxZ_CNo4HR-38">
          <mxGeometry relative="1" as="geometry" />
        </mxCell>
        <mxCell id="wEr44A83C3MxZ_CNo4HR-35" value="基础部/角色1" style="rounded=0;whiteSpace=wrap;html=1;" vertex="1" parent="1">
          <mxGeometry x="735" y="123" width="120" height="60" as="geometry" />
        </mxCell>
        <mxCell id="wEr44A83C3MxZ_CNo4HR-36" value="对SJ/GL分组的&lt;br&gt;文件操作权限&lt;br&gt;（增删改查）" style="ellipse;whiteSpace=wrap;html=1;" vertex="1" parent="1">
          <mxGeometry x="940" y="60" width="120" height="80" as="geometry" />
        </mxCell>
        <mxCell id="wEr44A83C3MxZ_CNo4HR-38" value="对SJ/FR分组的&lt;br&gt;文件操作权限&lt;br&gt;（增删改查）" style="ellipse;whiteSpace=wrap;html=1;" vertex="1" parent="1">
          <mxGeometry x="940" y="157" width="120" height="80" as="geometry" />
        </mxCell>
        <mxCell id="wEr44A83C3MxZ_CNo4HR-42" style="edgeStyle=none;curved=1;rounded=0;orthogonalLoop=1;jettySize=auto;html=1;exitX=1;exitY=0.5;exitDx=0;exitDy=0;entryX=0;entryY=0.5;entryDx=0;entryDy=0;fontSize=12;startSize=8;endSize=8;" edge="1" parent="1" source="wEr44A83C3MxZ_CNo4HR-40" target="wEr44A83C3MxZ_CNo4HR-41">
          <mxGeometry relative="1" as="geometry" />
        </mxCell>
        <mxCell id="wEr44A83C3MxZ_CNo4HR-44" style="edgeStyle=none;curved=1;rounded=0;orthogonalLoop=1;jettySize=auto;html=1;exitX=1;exitY=0.5;exitDx=0;exitDy=0;entryX=0;entryY=0.5;entryDx=0;entryDy=0;fontSize=12;startSize=8;endSize=8;" edge="1" parent="1" source="wEr44A83C3MxZ_CNo4HR-40" target="wEr44A83C3MxZ_CNo4HR-43">
          <mxGeometry relative="1" as="geometry" />
        </mxCell>
        <mxCell id="wEr44A83C3MxZ_CNo4HR-40" value="基础部/角色2" style="rounded=0;whiteSpace=wrap;html=1;" vertex="1" parent="1">
          <mxGeometry x="735" y="291" width="120" height="60" as="geometry" />
        </mxCell>
        <mxCell id="wEr44A83C3MxZ_CNo4HR-41" value="对SJ/GL分组的&lt;br&gt;只读权限" style="ellipse;whiteSpace=wrap;html=1;" vertex="1" parent="1">
          <mxGeometry x="940" y="259" width="120" height="80" as="geometry" />
        </mxCell>
        <mxCell id="wEr44A83C3MxZ_CNo4HR-43" value="对SJ/FR分组的&lt;br&gt;只读权限" style="ellipse;whiteSpace=wrap;html=1;" vertex="1" parent="1">
          <mxGeometry x="940" y="357" width="120" height="80" as="geometry" />
        </mxCell>
        <mxCell id="wEr44A83C3MxZ_CNo4HR-45" value="权限映射关系" style="text;html=1;align=center;verticalAlign=middle;resizable=0;points=[];autosize=1;strokeColor=none;fillColor=none;fontSize=16;" vertex="1" parent="1">
          <mxGeometry x="108.5" y="-0.5" width="114" height="31" as="geometry" />
        </mxCell>
      </root>
    </mxGraphModel>
  </diagram>
</mxfile>
